# xmcd CD database file
#
# Track frame offsets:
#	150
#	20001
#	38547
#	59746
#	76650
#	95476
#	110805
#	131101
#	145513
#	162506
#	181003
#	196683
#	213176
#	229698
#	248219
#	264272
#	283327
#	303998
#	320671
#	340221
#
# Disc length: 4773 seconds
#
# Revision: 0
# Processed by: cddbd v1.5.2PL0 Copyright (c) Steve Scherf et al.
# Submitted via: CDex 1.77
#
DISCID=1b12a314
DTITLE=Varios Artistas - Los Grandes De La Salsa
DYEAR=2016
DGENRE=Salsa
TTITLE0=Hagamos El Amor - Chiquito Team Band
TTITLE1=Por Que Te Fuiste Dulce Amor - Felix Manuel
TTITLE2=Lo Mejor Que Hay En Mi Vida - Bryant Joel
TTITLE3=Corazon De Acero - Yiyo Sarante
TTITLE4=Mi Princesa - Revolucion Salcera
TTITLE5=Traidora - Marc Anthony ft Gente De Zona
TTITLE6=Hoy No Estoy Para Nadie - Johnny Garcia
TTITLE7=Punto y Aparte - Chiquito Team Band
TTITLE8=Soltero Disponible - Felix Manuel
TTITLE9=La Vida Se Va - Victor Waill
TTITLE10=Colita y Cadera - El Alfa ft Chiquito Team Band
TTITLE11=A Falta De Ti - Revolucion Salsera
TTITLE12=Amante A La Antigua - Felix Manuel
TTITLE13=El Sucesor - Pakole
TTITLE14=La Llamada De Mi Ex - Chiquito Team Band
TTITLE15=Te Hubieras Ido Antes - Felix Manuel
TTITLE16=Flor Palida - Marc Anthony
TTITLE17=Yo No Soy Una Chapiadora - Victor Waill
TTITLE18=Lo Malo Se Va Bailando - Alex Matos
TTITLE19=La Ultima Noche - Revolucion Salsera
EXTD=YEAR: 2016
EXTT0=
EXTT1=
EXTT2=
EXTT3=
EXTT4=
EXTT5=
EXTT6=
EXTT7=
EXTT8=
EXTT9=
EXTT10=
EXTT11=
EXTT12=
EXTT13=
EXTT14=
EXTT15=
EXTT16=
EXTT17=
EXTT18=
EXTT19=
PLAYORDER=
